<?xml version="1.0" encoding="UTF-8"?>
<!DOCTYPE svg  PUBLIC '-//W3C//DTD SVG 1.1//EN'  'http://www.w3.org/Graphics/SVG/1.1/DTD/svg11.dtd'>
<svg enable-background="new 45 235.1974 2069 1688.6051" version="1.1" viewBox="45 235.1974 2069 1688.6051" xml:space="preserve" xmlns="http://www.w3.org/2000/svg">
	<path d="m279.24 805.61c0.64-0.0299-0.98-1.4301 0 0z"/>
	<path d="m2051.3 1344.9c0.1799 3.2199-0.21-7.5501 0 0z"/>
	<path d="m2019.7 1277.5c-3.3452-4.045-27.463-38.24-27.342-41.633-6.3601-8.5552-11.648-17.762-17.67-26.58-9.2676-15.817-32.775-31.78-31.348-45.348 0.1531-1.4567-5.3281-40.928-4.8564-59.841 0.1563-6.2643 0.6052-12.516 0.824-18.778 0.1204-3.1301 0.1504-6.2611 0.0901-9.3929 2.2512-0.678 4.3208-1.7175 6.2083-3.1187 3.7256-2.7572 6.5129-6.7262 7.9316-11.131 2.6936-8.3621-2.5461-8.4099-8.6047-12.602-17.986-12.445-31.701-32.73-34.968-54.511-1.7104-11.408-0.7971-23.143 2.0227-34.298 3.2786-11.726 9.8894-22.05 12.38-34.015 5.1375-24.68 6.0684-50.164-6.136-73.035-10.43-19.547-26.133-37.154-47.838-44.061-21.821-6.9438-46.856 8.0649-61.936 22.281-7.6119 9.6945-10.447 21.218-16.263 31.858-5.1027 9.3359-14.34 11.244-22.44 15.112-1.6232 0.7752-2.1877 2.8041-1.1824 4.2957 2.5867 3.838 4.5784 7.0406 2.7139 12.243-0.6821 1.8608-1.6226 3.5785-2.8215 5.1531-0.8075 2.8062 0.4407 5.7109-0.4077 8.5176-3.5613 3.3004 0.2625 9.6152 0.3101 14.25-5.238 5.6432-6.73 12.738 1.5522 16.146 13.175 5.4213 6.0786 18.432-5.4324 18.304-10.375-7.5815-12.093-23.162-17.91-34.29-12.688-29.728-33.676-54.811-55.671-78.097-10.068-10.658-20.849-21.15-29.18-33.269-3.2849-4.7786-5.9941-9.7573-8.6886-14.833-2.1198-3.9927-3.7909-8.2056-5.2643-12.473-0.3335-0.9664-6.2839-21.031-7.6438-28.074-0.847-4.3873-2.0513-8.6816-2.8445-13.08-0.1473-0.8167-7.3417-46.42-12.058-63.794-4.1504-17.226-10.161-34.355-20.4-48.97-10.794-15.406-27.461-22.936-43.26-32.16-15.487-8.8929-32.909-13.533-44.438-27.967-10.934-13.69-7.4884-29.476-4.7358-45.914 1.699-10.146 5.6736-10.3 15.307-11.274 11.039-1.1167 18.041-3.6721 18.485-15.42 0.1111-2.9391-0.3639-7.3276 1.9969-9.5806 2.2513-2.1482 6.239-3.1621 9.015-4.491 3.3103-1.5846 6.5822-3.2498 9.8115-4.9934 8.3853-4.5275 16.442-9.509 23.95-15.362 6.5244-5.0867 13.357-10.93 17.303-18.344 0.3049-0.5728 2.7332-7.9229 2.2944-7.8542-18.998 3.0386-37.685 7.441-56.55 11.352-4.5863 0.9507-9.1891 1.8259-13.815 2.5614-6.8297 1.0858-5.6438-1.0907-5.5413-7.1434 0.1588-9.3682-0.8342-18.153-2.9241-27.232-3.9441-17.135-11.196-35.303-23.976-47.731-14.394-13.997-35.409-20.045-55.033-19.801-40.754 0.5051-72.179 31.954-71.546 72.959 0.0638 4.1355 1.8031 14.114-1.6385 17.123-3.8458 3.3625-74.165 5.5261-78.552 5.4851-3.8213-0.0358-7.2151-0.9502-4.9038 3.488 4.8402 9.2952 19.554 13.038 28.511 16.506 11.78 4.5603 23.699 9.1417 35.562 13.481 5.2898 1.9349 10.712 3.5413 16.255 4.568 5.3145 0.9845 16.52-0.366 14.438 7.0305-1.401 4.9771-3.8518 8.3872-6.3796 12.772-4.6151 8.0059 2.9948 9.1945 9.1025 10.242-0.6328 2.437-1.0862 4.9071-1.3601 7.41 2.4796 2.7238 3.8274 3.5612 3.9487 7.3037-0.126 2.2393 0.6624 4.1163 2.3651 5.6312 3.0626 3.9841 0.9261 5.6953-1.1383 9.8162-7.5388 15.049 23.604 9.2688 29.383 8.1292 5.8085-1.1455 14.52-5.3848 15.325 2.5107 0.4668 4.5776 0.9886 15.43-2.8647 18.85-9.8635 8.7539-27.11 14.202-39.364 18.609-25.704 9.2446-55.402 17.302-75.826 36.685-14.852 14.096-17.815 35.217-17.872 54.723-0.0178 6.2075-0.0502 12.562 0.7467 18.688 0.746 5.7345-0.2755 12.176-1.0485 17.885-1.1118 8.2124-2.9922 16.321-5.6115 24.184-1.3044 3.9158-3.0026 7.7029-4.3392 11.584-1.2903 3.7461-3.6038 7.0138-5.0776 10.698-3.063 7.5657-5.6885 15.302-8.7484 22.867-0.098 0.2423-0.1954 0.485-0.2992 0.725l-0.13-1.14c-2.4052 15.162-9.7771 24.671-12.44 39.5-1.137 0.119-3.729 17.938-4.0624 20.235-1.4899 10.263-0.7472 20.942-3.1676 31.145-5.2307-3.447-4.2665-11.442-5.3999-16.81-1.9395-8.1476-11.161-39.421-12.09-41.61-1.2468-4.4449-3.7417-8.5321-6.4844-12.73-7.3932-11.317-11.922-26.49-7.6454-40.43 5.2426 1.1781 7.2123-1.9773 6.8973-6.8215-0.3384-5.2039-1.8479-10.22-2.9763-15.285-1.3914-6.2441-0.9548-12.342-1.188-18.844-0.3077-8.5826-0.2679-17.172-0.0088-25.756 0.8372-27.738-5.0646-54.928-12.431-81.491-2.8303-10.206-5.8932-20.345-8.9573-30.482-2.239-7.4075-4.7207-15.361-10.272-21.024-6.3989-6.528-14.476-10.861-21.555-16.576-7.1584-5.7791-13.395-11.518-22.398-14.244-9.6239-2.9137-19.733-4.2981-28.982-8.3945-6.8896-3.0516-12.835-6.9597-15.09-14.496-1.5773-5.2703-0.9811-6.2706 4.42-6.6259 3.2267-3.9045 3.8683-5.7472 4.9113-10.985 0.5585-2.8051 1.0181-7.3713 3.4115-9.3782 2.3801-1.9957 6.1105-1.7312 7.9473-4.5068-0.686-3.3948-1.8099-5.3921 1.1299-7.8038 3.4141-2.8007 1.9956-7.4657 1.92-11.706 4.2162-0.2363 9.7742 2.2202 12.95-1.8501 0.7217-7.3467 0.1006-14.727-0.3201-22.07-0.2697-6.2024-1.4243-13.365 4.5078-16.959 8.3088-5.0336 8.304-11.461 8.2041-20.638-0.1328-12.221-8.3068-30.926 8.1658-34.149 12.425-2.4309 23.21-14.131 27.212-25.934-5.8334 0.6487-8.061 9.1852-13.858 2.609-5.4288-6.1591-11.369-11.793-16.892-17.869-11.253-11.252-28.574-20.578-43.174-26.642-14.918-6.1967-26.918-12.745-43.654-12.913-19.049-0.1908-35.052 4.6626-50.828 15.482-27.723 19.012-41.582 56.272-36.127 88.789 5.3359 31.81 15.895 81.379-19.337 101.06-14.697 9.8525-32.851 5.9929-49.619 7.323-18.614 1.4766-38.164-0.0935-56.37 4.5938-34.619 8.9126-53.767 49.328-61.822 80.956-9.1269 35.84-11.108 73.48-24.712 108.15-9.6189 24.513-25.833 50.654-46.107 67.912-8.0519 6.8539-16.173 13.449-24.365 20.038-7.6895 6.1846-14.78 15.414-23.325 20.29-1.3744-7.2046-3.9116-17.521-4.06-16.4-0.3333-4.5302-12.947-55.113-16.665-55.155-3.0255-0.0341-12.877-26.871-14.426-30.097-3.2301-6.731-6.6815-13.384-10.899-19.558-5.4058-0.9375-8.2305-6.0925-10.88-10.3 1.0244-0.4443 2.0477-0.8909 3.07-1.34-8.7251-11.735-20.981-22.772-36.142-22.825-17.79-0.0614-33.847 5.5658-49.572 13.716-3.9981 2.0723-7.9419 4.2523-11.786 6.5989 0.3778 4.5524 0.3059 4.7472-2.6697 7.7688-5.9557 6.048-12.853 11.105-18.73 17.311-1.3489 2.7051-3.9764 4.2527-6.7556 5.1216-4.0221 1.2576-4.9096 3.4475-7.0933 7.0952-1.9712 3.2925-3.7046 6.7273-5.1799 10.27-0.7768 1.8652-2.408 12.154-3.4011 6.7632-0.066 3.0339-0.476 6.0205-1.23 8.9601-0.2433-0.3367-0.4866-0.6733-0.73-1.01-0.0181 6.8445-2.0436 13.206-2.41 20.1-0.2433-0.3132-0.4867-0.6267-0.73-0.9399 0.4914 13.112-1.1261 27.047-1.8486 40.167-0.8456 15.356 0.9999 31.108 1.4149 46.488 0.4273 15.834 2.1201 31.474 1.7337 47.364-1.9917 2.2818-19.737 4.3241-22.96 4.6-16.47 4.8636-35.976 9.6665-45.69 27.41-4.7811 8.3563-8.9885 16.371-9.6006 26.344-0.3556 5.7941 0.9456 12.381 6.2214 15.697 2.4958 1.5687 5.4468 2.3331 8.3491 2.6489 1.5088 4.2659 1.5672 8.8267 1.1016 13.272-2.9207 27.887-15.185 52.701-34.772 72.398-3.7974 3.6675-10.039 11.806-13.514 5.3284-2.8894-5.3867-6.9221-9.8088-11.135-14.185-10.494-10.899-25.935-12.294-39.632-16.918-12.49-4.2162-22.913-10.132-31.128-20.556-5.7394-5.9938-12.332-26.974-4.8556-33.206 6.5454-5.4561 10.199-11.074 17.696-17.064 3.4134-5.2469 2.5721-8.9462 8.37-11.28 0.8755-3.0641 0.4431-4.6236 3.73-5.8562 4.351-1.6317 2.5273-6.5533 2.54-10.694 2.4651 0.3224 4.8918 0.8291 7.28 1.52-5.3808-2.8101 1.8198-17.928-5.25-10.11 0.531-6.2228-1.6457-8.4437 1.1312-14.632 2.5601-5.7053 2.9672-8.6959 1.3488-14.808-0.4824 1.8527-0.9625 3.7061-1.44 5.56-0.3397-5.4055-0.4214-10.847 0.16-16.24-1.24 0.0966-2.48 0.1933-3.72 0.29 0.5082-4.4232 3.8306-7.98 0.29-11.18-2.6096-2.3586-2.0949-3.8482-2.3-7.2599-4.6294-1.6158-3.4505-3.3268-4.4415-7.8092-1.4759-6.6758-7.7141-7.4575-8.3785-14.291-3.6899-2.071-4.7441-18.998-10.03-10.16-0.8091-5.9865-0.5972-7.7577-6.76-10.15-0.0517 1.4666-0.0983 2.9331-0.14 4.4-1.8583-4.1843-2.715-9.3829-6.737-12.047-4.6166-3.0575-8.9743-0.2036-13.173-2.6433 0.2279-6.2356-3.8218-5.2434-8.6-4.1499-4.282-1.7461-5.1354-10.671-8.53-0.77-3.6267-3.5103-6.132 2.7869-10.99-1.1001-3.3598 4.5511-4.3663 5.0291-9.9301 3.04-3.3118 0.2268-4.6251 1.8167-3.94 4.77-2.4091 0.1731-4.5258 1.0498-6.35 2.63-3.6024 3.1378-8.3569 2.613-10.765 7.0162-1.7527 3.2048-2.1904 8.4896-7.245 4.8838 0.3088-1.9788 1.2089-3.6421 2.7-4.99-5.4757 2.364-2.5158 7.9451-8.2072 10.207-3.4367 1.3662-6.5897 3.5109-8.9064 6.4202-3.2501 4.0815-0.8671 3.9321-0.9531 8.2225-0.0661 3.2983-4.621 4.4371-6.9348 5.5841-4.6475 2.3038-2.4666 3.8149-3.9037 8.2167-2.1039 6.4441-0.3568 9.108-7.4448 11.689 2.0878 0.1799 4.1779 0.3299 6.27 0.45-0.6395 2.0735-1.5784 4.2991-4.18 4.27 0.0302-1.21 0.0601-2.42 0.09-3.63l-2.01 0.17c0.5917 3.7192 1.6995 7.3032 2.1463 11.046 0.1202 2.5126 0.7681 4.8807 1.9437 7.1044-1.2848 2.6815-1.9925 3.8311-1.9612 6.9137 0.0603 5.9522-4.2707 6.1746-0.9325 12.015 3.0837 5.395-1.7531 8.9088 0.8138 15.431 1.3121-1.5474 2.1666-5.5472 5.19-3.91-2.9366 4.5987-6.339 9.2972-3.9644 13.804 1.3918 2.3739 2.4066 4.8994 3.0444 7.5763 3.0859-1.3715 4.7593-0.6915 5.02 2.04 1.8298-0.2858 4.4242-4.7144 5.58-1.8385 1.2725 3.1663 0.2866 3.747-2.64 4.4285 2.7601 2.3431 4.6296 5.5604 5.46 9.07 4.1072-11.138 5.8661 7.1159 8.0262 9.86 3.8853 4.9356 11.647 9.1212 16.894 12.51 0.8718 8.1298 2.1898 16.977 0.98 25.12-2.7999 5.3737-11.443 7.5543-16.61 9.3677-15.982 5.61-33.147 6.1469-49.284 11.198-7.3163 2.2902-16.967 4.9818-22.636 10.384-5.3773 6.5273-10.063 16.437-13.648 24.114-14.129 30.263-6.6722 70.81-3.0994 102.69 1.9281 17.205-1.7852 34.53-0.4132 51.554 0.7447 9.2136-0.7625 17.815 2.47 26.67 3.2585 9.6825 7.5985 18.982 12.721 27.815 8.6558 14.924 19.585 29.053 31.454 41.571 6.7458 7.115 7.1758 9.5641 6.0735 20.143-0.9679 9.2893-2.4144 18.523-4.3036 27.669-3.8488 18.633-8.3616 37.208-10.175 56.191-0.5746 20.079-2.0234 39.985-3.3967 60.006-0.6427 9.3693-1.1093 18.884 0.7567 28.154 3.6324 6.0341 9.2433 11.005 11.13 18 1.0301 7.4907-0.608 15.913 3.2415 22.784 4.4634 7.9669 1.6318 17.829 1.2472 26.647-0.8451 19.376 0.31 38.743-1.4158 58.074-0.8641 9.6798-1.548 19.375-2.1259 29.076-0.2891 4.8516-0.5516 9.7046-0.7971 14.559-8.1454 3.3844-8.8771 3.3544-8.8348 12.376 0.0265 5.6586-1.9952 11.172-1.9301 16.668 0.075 6.327 5.1741 9.6644 7.2424 15.006 1.6428 4.2426-1.5634 9.6644-2.5629 13.719-1.5998 6.4896-2.8964 13.036-4.9346 19.414-1.1379 3.5605-4.2515 9.4668-2.5062 13.246 2.3524 5.0942 12.883 7.2593 17.636 8.9208 5.4018 1.6995 10.914 3.0116 16.348 4.5964 2.7206 0.7786 5.4056 1.6652 8.0549 2.6597 5.9818 2.2802 3.4761 4.6299 2.1873 10.061-2.576 10.856-3.366 22.84-11.794 30.642-6.1307 5.6758-14.588 21.267-0.9847 23.727 12.12 2.1921 26.209-0.7491 38.199-2.681 6.1194-0.9861 13.151-1.8223 18.869-4.2955 4.2716-2.0298 3.9417-12.277 4.6519-16.077 1.111-5.9446-0.7682-11.896-1.2209-17.805-0.5559-7.2544 0.5479-14.93 1.1394-22.165 1.0557-12.913 6.9804-17.958 12.251-28.994 4.9077-10.275 0.0933-23.284-0.7372-33.981-1.218-15.688-1.787-31.404-1.8448-47.13-0.2083-56.755-2.9582-166.94-3.1796-165.15 0.5909-20.794-1.1572-41.801-1.08-62.66 4.2592-0.5325 8.357 21.746 9.53 26.3 1.8013 6.0363 2.9362 12.238 4.2992 18.38 0.4946 2.2286 7.2717 37.28 8.4557 46.174 1.2989 9.7565 1.9459 19.585 3.1757 29.349 2.3768 18.872 3.1529 37.914 2.592 56.927-0.5212 17.669-1.2032 35.236-1.1179 52.941 0.0787 16.358 2.8904 36.229-4.5663 51.478-3.2754 6.6986-8.3183 9.3005-7.9685 17.741 0.2787 8.7003 2.5275 17.196 2.828 25.895 0.6074 17.581-17.174 25.139-12.408 44.165 3.0466 7.3534 8.5632 12.427 9.8181 20.626 1.0776 7.04 0.5535 14.266 2.1697 21.234 3.9974 17.233 20.725 24.285 36.977 22.993 17.63-1.4015 22.442-16.394 35.195-25.383 12.13-9.3464 32.484-20.143 31.12-38.32 0.103-14.618-17.02-23.905-16.282-38.422 0.3613-7.1044 7.866-11.549 11.79-16.806 5.6491-7.5697 3.5353-17.824 3.6832-26.667 0.1508-9.0221-0.6944-12.404-6.1622-19.301-4.6686-5.8885-1.4609-17.954-1.2734-24.964 0.5321-19.903 1.2655-39.794 1.37-59.703 0.2043-38.938 1.9643-77.782 1.9996-116.72 0.0132-14.541-0.0256-29.083-0.0673-43.624-0.0351-12.247-2.7126-37.821-2.8577-36.683-0.1317-17.639-0.1435-35.167-1.3405-52.79-0.4559-6.7122-0.6931-13.434-0.7874-20.161-0.108-7.7036-2.7786-15.473-2.0869-23.138 1.369-15.169-0.4111-29.252-3.6227-44.264-1.4811-6.9231-4.1055-14.393-3.4826-21.557-0.6443-2.6555-1.2526-5.3192-1.825-7.9912-0.2068-1.0009-7.687-36.255-7.9575-51.813-0.2718-15.637-0.463-31.315 0.9825-46.906 7.2543 0.5652 13.717 21.749 17.416 27.712 3.1251 5.0378 12.274 4.9729 16.794 1.3683 8.0784 0.0454 7.0605 6.0171 9.0399 13.133 7.0153 25.219 30.448 39.41 55.35 42.147-3.5675 0.4578-2.9158 0.8414 1.9551 1.1508 4.1744 0.4724 8.3805 0.3649 12.565 0.6792 3.4825 2.3402 2.9132 10.81 2.8453 14.105-0.3482 16.907 0.5818 32.883 3.6884 49.532 1.3581 7.2787 2.7993 14.546 3.8463 21.878 0.744 5.2104-0.6545 15.941 1.845 20.384 1.7949 3.191 1.5397 8.3126 1.8749 11.85 2.5322 7.5376 5.4095 25.789 6.1338 28.612 1.223 4.7688 2.3241 8.5004 3.0912 12.926 1.6807 9.697 2.9849 24.856 3.305 22.711 1.5339 48.197 4.8771 97.149 0.6381 145.41-0.6639 7.5593-3.0784 21.797 1.562 28.417 4.7473 7.2496 15.005 2.9319 20.982 7.66 7.8439 6.2039 4.8596 21.295 5.1375 29.87 0.0397 13.059 1.7078 26.163 2.15 39.23 1.1848-6.9984 1.8753 4.031 2.3611 5.4893 1.8929 5.682 4.6573 11.032 7.0237 16.497 2.6113 6.0311 5.3979 11.983 8.3864 17.836 8.0845 15.835 8.4059 34.859 7.8289 52.41-0.5577 16.964-1.9547 33.768-6.694 50.08-3.9953 13.751-15.519 34.843-5.736 48.548 8.47 13.445 32.211 13.719 45.895 13.731 20.036 0.0175 31.044-7.0322 30.872-28.568-0.0342-4.2822-0.1569-8.6047 0.6035-12.843 4.1422-0.2101 8.2882-0.3909 12.418-0.792 8.074-0.7841 16.621-2.0233 24.012-5.5309 18.013-8.5488 19.841-31.429 17.034-48.791-5.2469-32.455-30.448-72.973-14.473-105.4 7.1609-14.536 14.944-28.689 22.443-43.047 3.9802-7.6208 4.418-13.021 12.804-16.104 7.8535-2.8872 11.882-11.042 14.853-18.172 6.0735-3.0359 4.8101-35.044 5.6324-41.107 2.608-19.232 3.3179-38.942 4.8657-58.271 2.947-36.8 7.8154-73.897 9.2877-110.74 0.367-9.1823 3.0066-33.281 3.3228-41.801 0.4377-11.79 0.221-23.631 0.2586-35.428 0.0677-21.224-0.7861-42.092-4.0179-63.09-3.238-21.038-7.6697-41.737-14.664-61.808-3.8016-10.909 0.4357-15.219 11.04-16.738 3.5795-0.5128 9.5146 0.0332 7.9773-5.1007-0.3877-1.2947-8.3108-24.759-9.7346-34.308-1.7654-11.84-1.7648-24.446-0.9825-36.397 1.4869-22.72 4.0818-44.515 7.4747-66.965 0.1866 0.3766 5.4733-31.945 8.5-32.61 1.0826 2.3047 4.9284 15.216 5.13 15.17 0.1743 1.5934 2.0892 7.6404 1.93 6.9901 0.2443 1.1605 19.996 60.127 24.654 68.132 3.3708 5.7931 7.4552 10.824 12.359 15.383 3.0197 2.8071 6.314 5.1245 9.8625 7.2274 1.5033 0.8909 20.225 7.0073 26.775 8.9275 3.7969 2.8358 2.4812 8.2192 2.5112 13.831 0.105 19.608-0.9032 39.962-2.0313 59.559-0.2999-5.5192-2.6298 47.853-5.52 79.92-0.3528-0.4189-2.8375 28.171-3.3397 42.523-0.5166 14.764-0.899 29.551-1.4113 44.341-0.4301 12.417-3.1287 25.033-3.7302 37.69-0.6884 14.486-0.4799 29.535-0.0941 44.058 0.368 13.857 0.1922 25.735 5.2285 38.924 2.3111 6.0526 5.3975 11.888 9.7368 16.744 4.7065 4.9315 5.3036 10.825 7.7662 16.894 9.7757 24.094 27.662 48.858 47.944 65.166 5.83 3.9784 12.501 7.0195 12.606 14.535 0.1066 7.6317-0.6007 14.863-1.899 22.377-2.392 13.843-6.4812 27.357-7.5349 41.401-2.0454 27.262-4.3857 55.998 14.843 78.104 14.176 16.297 56.192 12.314 69.46-4.62 7.9724-10.176 5.3789-26.913 4.95-38.915-0.4828-13.514-2.5681-26.896-3.6284-40.365-1.0544-13.394-0.3013-27.091-0.3838-40.547-0.0449-7.3243-0.0879-14.649-0.0811-21.974 0.0143-15.536-16.35-38.598-1.3933-50.224 13.115-10.195 18.929-24.45 22.345-40.523 1.709-8.0422 2.0159-16.971 1.1404-25.164-0.9556-8.9447-7.0574-11.973-13.654-16.486-4.7382-4.2235-2.3503-14.065-2.5961-20.016-0.4344-10.522-1.5516-21.05-1.8524-31.566-0.5515-19.289-0.4929-38.734-0.2202-58.03 0.2263-16.013 0.4048-36.848 5.5647-52.17 2.9006-8.613 8.3059-16.251 11.763-24.656 3.61-8.7777 6.4198-18.006 11.762-25.952 2.9877 11.895 1.0916 25.941 1.1876 38.137 0.2123 26.965 1.4749 53.951 2.0189 80.929 0.5537 27.447 0.7321 54.898 1.0283 82.345 0.026 2.411-0.0192 4.8176 0.1025 7.2274 0.4282 8.4786 0.6646 16.502-0.0139 24.986-0.6465 8.0815-2.9592 14.989-5.8309 22.472-3.2823 8.5525-1.4312 19.047-1.3258 28.004 0.1106 9.3977 0.5576 18.665 1.0033 28.044 0.4143 8.7159-2.6823 15.733-4.5302 24.186-2.2905 18.952-5.5864 37.549-6.563 56.738-0.8953 17.592-4.558 35.583-2.9585 53.231 0.7788 8.5911 6.4071 12.956 10.85 19.708 5.0754 7.7124 0.9763 20.542 0.2693 29.144-1.5002 18.25-2.0928 36.214-4.6614 54.482-1.833 13.036-15.973 40.886-3.8934 51.234 12.018 10.296 32.667 7.3462 47.048 5.1249 13.067-2.0184 39.248-3.7098 45.314-17.925 3.4305-8.0389-0.8171-17.195-3.0447-24.926-3.1177-8.8473-4.8301-18.11-6.1357-27.375-2.6655-18.915 3.3843-31.689 19.812-41.248 12.938-7.5284 30.732-10.487 40.505-22.209 11.197-13.431 5.979-41.092 5.6162-57.396-0.3997-17.967-1.8309-33.295 2.37-50.918 4.1519-17.417 19.529-24.978 27.184-40.122 7.4432-14.726 3.3735-33.39 2.6316-50.919-0.4438-10.486 0.7271-22.517 1.8252-32.984 1.0901-10.389-0.8232-21.324 4.7988-30.702 2.8073-4.6831 5.9219-0.5073 8.6907-5.3512 2.3491-4.1099 2.6365-9.4629 2.73-14.067 0.2078-10.231-1.937-20.073-3.2522-30.144-2.8743-22.01-4.6729-75.212-4.7502-77.802-0.236-7.9126-0.0166-15.835-0.4546-23.742-0.4017-12.874-1.8098-25.571-1.4265-38.498 0.1897-6.3967 1.9534-7.2393 2.175-12.445 0.3312-7.7733 1.4663-15.475 1.713-23.26 0.2433-7.6823 0.0894-15.369-0.0691-23.051-0.1029-4.9948-2.3925-13.969-2.6124-13.726-3.8711-17.033-9.4604-35.225-10.052-53.942-0.2338-7.3928-1.4352-14.786-2.7107-22.059-0.7251-4.1337-1.3047-8.0413-2.4672-12.142-0.5824-2.1602-1.1644-4.3187-1.7469-6.4789-0.7129-2.9731-1.5239-5.9263-2.2928-8.8903-0.635-2.4479-1.132-6.5237-1.1495-9.0525-0.0376-5.4196 0.0813-10.839 0.2971-16.254 0.4075-10.218 1.1619-20.419 1.8622-30.62 0.2968-4.3226 0.5844-8.646 0.8339-12.972 1.4528-25.193-1.4589-52.05-1.7164-75.394-0.2516-22.806-6.5428-46.826-9.9669-67.975-0.9185-5.6532-4.9109-15.915-4.8901-23.15 0.047-16.657-1.1191-33.467 1.4644-50.065 1.4126-9.0742 3.8499-17.988 7.2402-26.523 1.4993-3.7742 2.9524-8.4232 5.7262-11.409 3.1239-3.3623 6.1715-6.8616 9.1593-10.364 3.1581 6.7573-0.1903 26.829 8.5603 26.647 3.9304-0.0815 9.2666-1.1819 11.217 3.197 2.9048 6.522 4.3562 13.856 6.6782 20.61 3.7106 10.795 9.2385 20.922 12.624 31.815 0.3462 5.3607 3.6903 7.264 5.53 12.2 2.3136 10.117 0.4044 20.536 3.207 30.834 3.1543 11.591 6.0647 23.545 9.558 34.972 3.9827 13.028 11.479 27.777 20.695 39.144 1.3271 6.9615 10.919 16.1 14.956 22.354 1.3917 2.1563 11.036 20.134 12.154 19.966 2.611 5.7635 4.9207 9.9974 8 14.3 2.9946 6.9622 4.4592 16.114 4.0901 24.55-0.3496 7.9893-8.0427 12.25-10.13 18.29-2.7571 6.5173-3.4259 13.918-1.8098 22.978 1.7418 9.7651 2.3162 15.402 10.72 22.312 1.5049 2.3779 2.2013 4.1477 2.1306 7.3743-0.1875 8.5417-5.1548 7.96-11.821 7.1458-0.7484 16.726 25.337 20.967 37.304 20.92 6.6531-0.0261 12.106-3.3511 14.714-9.5208 2.9746-7.0361 2.1696-14.372 1.3174-21.722-1.8806-16.222-3.6636-32.422-6.1631-48.532-1.6123-10.39-3.1832-20.843-3.1832-31.371 0.5201-7.8413 1.3003-15.67 1.9795-23.5 0.1896-2.1866 0.3829-4.3921 1.0236-6.4913 0.707-2.3165 2.2196-3.7096 3.4023-5.6915 1.231-2.0627 2.2461-4.3544 3.3766-6.4729 2.1075-3.9494 4.146-7.938 5.8596-12.074 2.8209-6.8077 5.2672-13.768 7.4243-20.813 1.3107-4.2808 2.5149-8.594 3.6324-12.929 0.429-1.6637 7.8945-36.151 8.1967-51.793 0.2789-14.441-2.6429-32.927 5.0568-43.99 2.02-2.9027 3.5591-6.1128 4.2794-9.5751 1.3606-6.5399 2.7014-13.066 4.345-19.543 3.1566-12.439 17.658-45.897 18.533-46.946 4.2798-5.132 6.5525 4.8557 7.4384 7.4395 3.7772 11.016 6.4637 23.237 9.0742 34.606 5.3427 23.269 7.4536 48.27 7.3884 71.859-0.0608 21.997-4.2776 47.13-10.607 68.394-5.7595 19.348-18.401 66.686-18.833 69.218-0.6714 3.9363-1.3701 7.8619-1.9537 11.814-0.1185 0.8025-3.1051 28.929-4.6176 39.336-1.6697 11.49-0.9126 23.277-0.969 34.859-0.1067 21.965 4.5083 65.212 4.8015 64.836 4.1067 29.085 15.217 55.908 22.73 84.18 7.9988 32.177 18.905 63.826 29.22 95.46 9.2019 30.446 18.88 60.275 24.62 91.56 0.9083 6.3591 3.4185 13.205 5.0966 20.291 1.1237 4.745 1.5422 19.806 5.2234 20.669-0.2552 16.932 4.1359 28.295 3.2201 45.95 1.6802-7.6824 0.8799 9.6553 0.8937 11.49 0.048 6.3613 0.051 12.723 0.0339 19.084-0.036 13.415-1.004 26.756-1.1764 40.154-0.1571 12.22-0.4949 25.371 7.6062 35.246 7.8223 9.5352 13.739 15.332 13.641 28.438-0.1068 14.262 0.0872 28.533 0.0667 42.798-0.0084 5.8221 0.137 11.645 0.1127 17.465-0.0348 8.3331-3.6454 13.44-7.6781 20.514-2.0049 4.5175-2.2184 9.744 1.5452 13.296 1.5339 1.4185 3.2188 2.6263 5.0547 3.6237 0.0151 4.2623 0.12 8.5238 0.1162 12.786-0.0104 11.718-6.6858 37.256-7.0061 38.144-1.3835 3.2155-9.0532 27.954-9.2799 30.958-0.7594 10.07 2.0856 16.932 9.7386 23.459 2.6304 2.2434 3.7495 2.4495 6.855 4.0801 3.0405 1.5964 26.815 7.7545 38.585 7.1113 14.393-0.7864 16.26-13.103 16.24-24.922-0.0166-9.7107-1.8048-20.524-3.842-29.071-1.3389-5.6171-10.019-49.179-9.8442-61.454 0.0691-4.8682-1.6649-13.576 2.4053-17.156 4.5313-3.9855 8.7207-8.0432 12.241-12.98 13.54-18.986 20.531-44.109 21.027-67.259 0.115-5.3616 0.4077-10.741 1.4257-16.017 0.7937-4.113 2.0199-8.1284 3.2437-12.134 2.3752-7.7753 4.7505-15.55 7.1257-23.326 2.248-7.3588 4.6892-14.371 4.8973-22.122 0.0706-2.6311 4.8301-60.339 3.812-86.85 0.2717 2.0297 1.5088-26.163 2.3501-42.23 0.3301 0.3066 2.5458-25.237 4.4399-38.11 0.5847-7.5446 1.179-15.343 1.353-22.888 0.1671-7.2493 0.7939 0.4141 0.9376-7.5664 0.0433-2.4073 2.1134-36.904 1.8331-39.982-0.24-2.6367 0.7836-5.024 1.5651-7.5508 1.9288-6.2369 3.9752-12.437 6.1378-18.597 3.432-9.7761 7.1563-19.45 11.166-29.003 1.9282-4.594 3.8308-9.1544 5.5326-13.839 0.8036-2.2124 1.5825-4.434 2.3387-6.6631 0.5688-1.6768 1.9556-4.1732 1.9556-5.9398 0.1233 0.3867 4.0344-8.9076 5.63-14.79 0.2333 0.2766 11.14-34.526 11.51-34.505 0.4976 0.0283 5.1287-17.147 5.54-18.645 0.6555-2.5747 20.05-63.387 50.392-84.792 8.9526-6.3159 14.673-16.274 21.814-24.585 3.1747-3.6947 15.209-22.611 19.214-22.152 2.5631 0.2954 3.6149 23.44 4.0577 27.085 1.0774 8.8696 5.2017 31.444 5.5696 32.999 1.1948 5.0471 3.1334 9.8893 4.0327 15.006-0.0676-0.2378 13.552 39.679 13.828 40.64 1.1329 3.9495 8.8202 26.826 8.1036 31.05-0.6514 3.8396-1.5851 7.4752-2.8064 11.17-3.0997 9.3782-5.1948 22.136-5.665 31.99-0.1866-1.2833-1.1418 4.0375-2.0601 7.88-0.1633-0.3867-4.1708 23.597-6.6052 35.669-1.5375 7.6243-3.0339 15.257-4.5034 22.894-0.5875 3.0549-1.1711 6.1106-1.751 9.1669-0.2738 1.4429-9.3845 43.44-14.65 60.757-2.677 8.8037-5.4418 17.594-8.8503 26.147-1.0818 2.7146-8.4956 21.979-8.3896 25.626 9.293 4.7108 17.842 9.2266 27.85 12.34-0.3733 0.1166-0.7468 0.2333-1.1201 0.35 8.4556 1.2451 15.014 3.5231 24.197 3.5746 10.85 0.0608 8.259 20.024 7.286 30.123-2.4686 25.625-0.9537 51.527-2.3729 77.252-0.24-0.3467 2.5177 50.064 2.96 51.9 0.4791 3.8295 0.7625 1.924 2.54 6.96 2.3655 5.5194 5.5095 10.362 9.1599 15.73 2.324 3.4177 6.5364 8.9814 8.1901 11.79 0.6027 1.2953 1.9503 3.8358 3.3507 6.4183 3.2786 6.0464 5.2296 12.748 5.4867 19.622 0.677 18.099-3.6385 34.727-6.9321 53.221-3.5621 20.001-2.3466 39.377 12.022 54.902 5.7911 6.2572 13.044 11.202 21.122 13.988 11.789 4.7606 16.226-14.17 16.94-21.72 1.9744-20.693-2.2991-66.13-2.5409-67.785-0.8875-6.0743-2.0525-12.103-3.1765-18.136-0.843-4.5264-1.6638-9.0585-2.3271-13.615-0.261-1.7936 0.2721-46.486 0.6146-65.73 0.3367-18.915-0.9906-45.211-1.2101-39.494-0.1858-34.884-4.9529-72.047 4.02-104.43 0.1799 0.5333 2.3596-5.6888 3.41-9.2899 4.1829-0.1104 8.3676-0.0398 12.55 0.0499 0.1603 8.2469 0.241 16.486 0.1587 24.734-0.0243 2.4462-0.3567 23.172-0.7136 23.116 0.1075 0.017-3.3588 49.464 2.8248 70.829 6.6432 22.953 8.5332 44.795 7.2902 68.665-1.2258 23.539 1.5249 47.099 1.4888 70.636-0.0345 22.46 2.645 46.46-1.2488 68.65-0.8149 9.7283-3.7126 19.301-8.5376 27.795-5.2584 9.2568-15.251 20.088-17.815 30.381-2.1362 8.5745 2.186 12.074 9.9813 14.193 6.1469 1.6714 25.735 3.4507 30.451-0.6589 22.591-5.1782 21.074-39.172 21.126-56.595 0.0688-23.024-0.5112-46.077 0.0935-69.095 0.6208 5.6486 0.2178-11.524 2.22-25.4 0.2834 0.3667 2.6108-25.516 2.7837-29.562 0.3638-8.5084 1.4106-17.314 2.2551-25.808 0.8293-8.3445 0.7983-16.83 1.821-25.137 0.6824-5.5421-1.5532-21.599 1.3801-25.773 2.6667-3.7948-1.4082-51.056 1.0549-50.915-0.9663-0.0555 8.2761-47.049 8.7151-51.475 0.1484 1.1606 5.5381-23.582 7.0798-34 2.6204-12.904 14.735-15.026 25.583-17.443 11.501-2.5624 22.859-4.7781 34.138-7.2574 4.3335-0.9865 24.61-7.2229 24.956-12.094 0.1548-2.1743-1.5503-4.8761-2.2161-7.8063-2.0894-5.9003-7.7764-15.812-11.73-23.32-5.4385-14.654-19.76-44.443-19.93-44.14-8.8406-27.052-21.184-49.883-33.224-77.746-8.2026-18.984-17.814-37.095-27.521-55.328-2.1458-4.0302-4.4756-7.9625-6.4651-12.075-0.9731-2.0117-1.7373-4.0675-2.5276-6.141-0.7886-2.069-1.4907-3.7421-1.3872-6.0333 0.0952-2.103 0.6357-4.1572 1.1733-6.1927 1.123-3.0883 1.7102-6.4951 2.5544-9.6703 0.8574-3.2251 1.5332-6.4919 2.0686-9.7859 0.3191-1.9634 0.6755-3.9269 1.0105-5.8925 0.4958-2.911 1.4209-5.7922 2.1758-8.6635 1.5923-6.0562 3.0952-12.139 4.3047-18.285 0.5703-2.8993 1.0764-5.8124 1.7324-8.6942 0.3269-1.4359 0.6895-2.8641 1.1162-4.2738 0.3853-1.2734 0.7412-3.1482 1.5676-4.1863 0.4119 1.4382 0.2053 3.3251 0.3025 4.8364 0.1069 1.6572 0.2351 3.3129 0.3804 4.967 0.292 3.3234 0.6536 6.6404 1.0508 9.9528 0.7979 6.6563 1.741 13.294 2.5708 19.946 1.4968 11.997 2.3428 32.024 2.657 29.935 1.2341 8.848 0.3337 17.508 6.0593 24.925 6.6533 8.6191 17.324 13.64 24.945 21.422 12.935 13.206 26.373 25.213 39.926 37.804 12.66 10.764 24.813 22.895 27.547 39.44 1.5469 9.361 0.8806 15.232 5.5732 23.18 3.0503 5.6637 12.757 17.931 19.35 18.25-0.5125-4.6912-5.4761-9.9807-7.01-13.08-1.5808-4.9891-4.0801-8.0416-4.03-13.3 8.3687 0.4597 14.078 11.669 17.16 18.23 0.751 1.3793 3.8982 6.1564 5.21 8.78 1.0649 2.5697-1.8826 4.0184 1.4001 6.62l0.2-1.5801c4.2625 0.7996 5.1733-5.8584 4.98-9.3199-0.5359-19.266-0.9878-30.133-13.083-45.72-5.8325-7.5168-12.454-14.388-18.515-21.717zm-1838.6-347.25c-3.1 1.33-3.57-3.84-2.27-5.5 2.92-1.95 2.46 3.8 2.27 5.5zm1.48-82.69c-1.52 1.23-2.89-1.52-1.54-2.48 1.51-1.2599 2.89 1.5001 1.54 2.48zm96.67-41.94c-1.0969-1.3706-1.8835-2.9006-2.36-4.59 2.5331 0.0886 4.5858 1.9551 4.91 4.47-0.85 0.04-1.7 0.0801-2.55 0.12zm573.08-26.296c0.1792 4.9023-0.9451 9.9785-1.0941 14.987-0.1907 6.4089-1.5201 14.247-2.2496 21.85-0.25-0.4733-2.9064 20.329-4.08 31.84-0.2899-0.3999-6.0618 27.755-6.87 30.88-1.3943 5.3904-3.604 10.6-5.4763 15.835-1.8301 5.1169-3.177 10.183-5.5698 15.076-3.2214 6.5878-3.2252 14.179-5.0217 21.21-2.2576 8.8358-11.46 54.386-11.622 64.188-2.6964 8.3153-1.2249 19.198-1.2217 27.842 0.0037 9.9307-0.3718 19.741-0.7083 29.598 0.0038-0.1108-5.3508-0.1591-5.8977-0.146-2.0444 0.0483-4.1658-0.1169-6.0034-1.0933-1.0471-0.5563-1.9477-1.3473-2.8358-2.1329-3.6957-3.266-7.3558-6.5726-10.984-9.9131-3.4179-3.1465-6.758-6.2554-8.9957-10.398-1.0139-1.8767-1.7645-3.882-2.5118-5.8799 0-0.4616-0.4365-1.1671-0.6002-1.6046-0.2364-0.6321-0.4728-1.2642-0.7093-1.8964l-1.3641-3.6468c-0.4056-1.0844-0.7245-2.2778-1.3794-3.2056-0.2238-0.3171-0.3715-0.5279-0.5175-0.889-0.8664-2.1443-1.5894-4.3563-2.3519-6.5389-0.4594-1.3149-0.9158-2.6311-1.3607-3.951-0.1844-0.5472-0.6083-1.317-0.6083-1.9067 0-7.9896-4.8617-16.446-5.0966-24.625-0.2518-8.7637-0.9078-17.083-0.9634-26.457-0.0379-6.4108-3.7632-10.816 0.92-20.826s6.01-32.203-4.07-48.19-21.781-21.106-22.023-21.349c-1.9645-1.9703 23.96-18.748 31.601-25.335 3.0707-3.2795 6.1414-6.5592 9.212-9.8387 3.0135-3.2184 6.0302-6.4391 9.2286-9.4762 1.6281-1.5461 3.3017-3.0457 5.0411-4.4658 0.8301-0.6777 15.487-16.638 20.948-23.317 5.4362-6.6494 10.667-13.463 15.942-20.239 4.6689-7.0037 9.8473-13.408 15.204-19.834 3.2794-3.9342 9.839-14.839 14.086-15.286 1.6032 15.558-0.0858 46.674 4e-3 49.134zm864.47 204.36c-0.3579 0.0847-0.6238 0.152-0.8226 0.2062-22.747 5.6263-30.93 17.754-41.805 38.19-5.5831 10.491-10.687 20.709-15.242 31.694-3.9563 7.267-12.43 26.171-21.54 25.74-0.536-11.346-2.9613-20.828-5.0504-32.114-1.3203-7.1335-2.9296-13.307-4.5035-19.532-0.798-3.1561-2.8518-8.1811-3.436-10.424-2.2662-8.7001-3.6041-17.665-5.7311-26.41-2.3529-9.6748-5.0485-19.266-8.0798-28.75-2.8022-8.7672-6.135-17.342-8.9008-26.1-2.9402-8.6043-7.1941-16.675-11.51-24.651-2.9393-5.4314-5.9386-10.839-8.5948-16.417-2.8265-5.9074-5.1671-11.993-6.8115-18.339 0.052 0.3776 0.1038 0.7552 0.1558 1.1328-2.2612-6.7274-4.5222-13.455-6.7833-20.182-1.7748-5.2805-2.0162-10.522-2.6327-16.019-0.6447-5.7489-1.2954-11.514-1.1611-17.31 0.1296-5.583 1.5243-11.228 2.6816-16.663 1.4738-6.922 3.1235-13.805 4.6986-20.704 0.4203-1.8408 0.8365-3.6826 1.231-5.5292 0.4574-2.1412 0.442-4.1947 1.2134-6.2535 1.7456-4.6587 3.241-9.4119 4.4586-14.236 0.2797-1.1079 0.8064-4.5322 2.7976-3.5596 1.5043 0.7349 2.2292 4.8484 2.6833 6.3176l6.9924 22.623c2.6855 8.6886 5.4036 17.412 9.2982 25.651 4.0458 8.5587 9.6539 16.119 15.466 23.546 2.4197 3.092 4.8721 6.1588 7.2756 9.2638 10.298 13.303 21.011 26.259 31.473 39.649 12.712 16.27 25.535 32.46 38.152 48.804 11.213 14.526 27.588 31.655 33.979 49.026-3.2591 0.8073-6.6113 1.1094-9.9501 1.35z"/>
</svg>
